<mxfile host="app.diagrams.net" modified="2023-09-15T06:32:34.377Z" agent="Mozilla/5.0 (Windows NT 10.0; Win64; x64) AppleWebKit/537.36 (KHTML, like Gecko) Chrome/116.0.0.0 Safari/537.36" version="21.7.5" etag="RtrO6XoHnJ71HomDxQ34" type="github">
  <diagram name="페이지-1" id="jOPGaj-LfoNReiycw-sy">
    <mxGraphModel>
      <root>
        <mxCell id="0" />
        <mxCell id="1" parent="0" />
      </root>
    </mxGraphModel>
  </diagram>
</mxfile>
